<svg width="34" height="32" viewBox="0 0 34 32" fill="none" xmlns="http://www.w3.org/2000/svg">
    <g filter="url(#filter0_d_1_35)">
        <rect x="4" width="25.0435" height="24" rx="6" fill="white"/>
        <rect x="4.5" y="0.5" width="24.0435" height="23" rx="5.5" stroke="#0A0098"/>
    </g>
    <path d="M16.7432 15.7579C16.5817 15.7579 16.4268 15.6928 16.3126 15.5769C16.1984 15.461 16.1342 15.3039 16.1342 15.14C16.1342 14.9761 16.1984 14.8189 16.3126 14.7031C16.4268 14.5872 16.5817 14.5221 16.7432 14.5221C16.9047 14.5221 17.0596 14.5872 17.1738 14.7031C17.288 14.8189 17.3522 14.9761 17.3522 15.14C17.3522 15.3039 17.288 15.461 17.1738 15.5769C17.0596 15.6928 16.9047 15.7579 16.7432 15.7579ZM11.8714 7.10695H21.615V13.9041H11.8714V7.10695ZM21.615 15.14C21.938 15.14 22.2478 15.0098 22.4762 14.778C22.7046 14.5463 22.8329 14.2319 22.8329 13.9041V7.10695C22.8329 6.77918 22.7046 6.46483 22.4762 6.23307C22.2478 6.0013 21.938 5.87109 21.615 5.87109H11.8714C11.1955 5.87109 10.6535 6.42105 10.6535 7.10695V13.9041C10.6535 14.2319 10.7818 14.5463 11.0102 14.778C11.2386 15.0098 11.5484 15.14 11.8714 15.14H9.43555C9.43555 15.4678 9.56387 15.7821 9.79227 16.0139C10.0207 16.2456 10.3305 16.3758 10.6535 16.3758H22.8329C23.1559 16.3758 23.4657 16.2456 23.6941 16.0139C23.9225 15.7821 24.0509 15.4678 24.0509 15.14H21.615Z" fill="#0A0098"/>
    
    <defs>
        <filter id="filter0_d_1_35" x="0" y="0" width="33.0435" height="32" filterUnits="userSpaceOnUse" color-interpolation-filters="sRGB">
            <feFlood flood-opacity="0" result="BackgroundImageFix"/>
            <feColorMatrix in="SourceAlpha" type="matrix" values="0 0 0 0 0 0 0 0 0 0 0 0 0 0 0 0 0 0 127 0" result="hardAlpha"/>
            <feOffset dy="4"/>
            <feGaussianBlur stdDeviation="2"/>
            <feComposite in2="hardAlpha" operator="out"/>
            <feColorMatrix type="matrix" values="0 0 0 0 0 0 0 0 0 0 0 0 0 0 0 0 0 0 0.25 0"/>
            <feBlend mode="normal" in2="BackgroundImageFix" result="effect1_dropShadow_1_35"/>
            <feBlend mode="normal" in="SourceGraphic" in2="effect1_dropShadow_1_35" result="shape"/>
        </filter>
    </defs>
</svg>