<svg width="56" height="56" viewBox="0 0 56 56" fill="none" xmlns="http://www.w3.org/2000/svg">
  <g filter="url(#filter0_d_1_35)">
    <circle cx="28" cy="26" r="20" fill="#3D2EFF"/>
  </g>
  <path d="M27.8628 23.5703H28.8169V32.1571H27.8628V23.5703Z" fill="white" stroke-linejoin="round"/>
  <path d="M26.112 26.535C25.4029 25.9015 24.9976 24.9957 24.9976 24.0448C24.9976 23.094 25.4029 22.1882 26.112 21.5547L26.7512 22.2655C26.2443 22.718 25.9544 23.3653 25.9544 24.0448C25.9544 24.7244 26.2443 25.3717 26.7512 25.8242L26.112 26.535Z" fill="white" stroke-linejoin="round"/>
  <path d="M30.5675 26.535L29.9282 25.8242C30.4352 25.3717 30.725 24.7244 30.725 24.0448C30.725 23.3653 30.4352 22.718 29.9282 22.2655L30.5675 21.5547C31.2765 22.1882 31.6819 23.094 31.6819 24.0448C31.6819 24.9957 31.2765 25.9015 30.5675 26.535Z" fill="white" stroke-linejoin="round"/>
  <path d="M24.7142 28.2436C23.3929 27.2526 22.6152 25.6973 22.6152 24.0456C22.6152 22.394 23.3929 20.8387 24.7142 19.8477L25.2867 20.6109C24.2056 21.4217 23.5693 22.6943 23.5693 24.0456C23.5693 25.397 24.2056 26.6695 25.2867 27.4803L24.7142 28.2436Z" fill="white" stroke-linejoin="round"/>
  <path d="M31.965 28.2436L31.3926 27.4803C32.4737 26.6695 33.1099 25.397 33.1099 24.0456C33.1099 22.6943 32.4737 21.4217 31.3926 20.6109L31.965 19.8477C33.2864 20.8387 34.064 22.394 34.064 24.0456C34.064 25.6973 33.2864 27.2526 31.965 28.2436Z" fill="white" stroke-linejoin="round"/>
  
  <defs>
    <filter id="filter0_d_1_35" x="0" y="0" width="56" height="56" filterUnits="userSpaceOnUse" color-interpolation-filters="sRGB">
      <feFlood flood-opacity="0" result="BackgroundImageFix"/>
      <feColorMatrix in="SourceAlpha" type="matrix" values="0 0 0 0 0 0 0 0 0 0 0 0 0 0 0 0 0 0 127 0" result="hardAlpha"/>
      <feMorphology radius="4" operator="dilate" in="SourceAlpha" result="effect1_dropShadow_1_35"/>
      <feOffset dy="2"/>
      <feGaussianBlur stdDeviation="2"/>
      <feColorMatrix type="matrix" values="0 0 0 0 0.364706 0 0 0 0 0.431373 0 0 0 0 0.643137 0 0 0 0.21 0"/>
      <feBlend mode="normal" in2="BackgroundImageFix" result="effect1_dropShadow_1_35"/>
      <feBlend mode="normal" in="SourceGraphic" in2="effect1_dropShadow_1_35" result="shape"/>
    </filter>
  </defs>
</svg>