<svg width="56" height="56" viewBox="0 0 56 56" fill="none" xmlns="http://www.w3.org/2000/svg">
    <g filter="url(#filter0_d_1_35)">
        <circle cx="28" cy="26" r="20" fill="#3D2EFF"/>
    </g>
    <path d="M28.0003 17.0586C22.901 17.0586 18.7695 21.061 18.7695 26.0009C18.7695 30.9408 22.901 34.9432 28.0003 34.9432C33.0996 34.9432 37.2311 30.9408 37.2311 26.0009C37.2311 21.061 33.0996 17.0586 28.0003 17.0586ZM35.1914 22.5394H32.1206C31.7857 20.9384 31.2236 19.5754 30.5127 18.6055C32.5599 19.2617 34.2422 20.6932 35.1914 22.5394ZM31.2757 26.0009C31.2757 26.8266 31.2162 27.5947 31.1157 28.3086H24.8849C24.7844 27.5947 24.7249 26.8266 24.7249 26.0009C24.7249 25.1752 24.7844 24.4072 24.8849 23.6932H31.1157C31.2162 24.4072 31.2757 25.1752 31.2757 26.0009V26.0009ZM28.0003 18.2124C29.0015 18.2124 30.2857 19.8026 30.9072 22.5394H25.0934C25.7149 19.8026 26.9991 18.2124 28.0003 18.2124ZM25.4879 18.6055C24.7807 19.5718 24.2149 20.9348 23.88 22.5394H20.8092C21.7584 20.6932 23.4407 19.2617 25.4879 18.6055V18.6055ZM19.9606 26.0009C19.9606 25.1968 20.0871 24.4216 20.3216 23.6932H23.6901C23.5934 24.4324 23.5338 25.2004 23.5338 26.0009C23.5338 26.8014 23.5896 27.5694 23.6901 28.3086H20.3216C20.0871 27.5802 19.9606 26.805 19.9606 26.0009ZM20.8092 29.4624H23.88C24.2149 31.0634 24.777 32.4264 25.4879 33.3963C23.4407 32.7401 21.7584 31.3086 20.8092 29.4624ZM28.0003 33.7894C26.9991 33.7894 25.7149 32.1992 25.0934 29.4624H30.9072C30.2857 32.1992 29.0015 33.7894 28.0003 33.7894V33.7894ZM30.5127 33.3963C31.2199 32.43 31.7857 31.067 32.1206 29.4624H35.1914C34.2422 31.3086 32.5599 32.7401 30.5127 33.3963ZM32.3105 28.3086C32.4072 27.5694 32.4668 26.8014 32.4668 26.0009C32.4668 25.2004 32.411 24.4324 32.3105 23.6932H35.679C35.9134 24.4216 36.04 25.1968 36.04 26.0009C36.04 26.805 35.9134 27.5802 35.679 28.3086H32.3105Z" fill="white"/>

    <defs>
        <filter id="filter0_d_1_35" x="0" y="0" width="56" height="56" filterUnits="userSpaceOnUse" color-interpolation-filters="sRGB">
            <feFlood flood-opacity="0" result="BackgroundImageFix"/>
            <feColorMatrix in="SourceAlpha" type="matrix" values="0 0 0 0 0 0 0 0 0 0 0 0 0 0 0 0 0 0 127 0" result="hardAlpha"/>
            <feMorphology radius="4" operator="dilate" in="SourceAlpha" result="effect1_dropShadow_1_35"/>
            <feOffset dy="2"/>
            <feGaussianBlur stdDeviation="2"/>
            <feColorMatrix type="matrix" values="0 0 0 0 0.364706 0 0 0 0 0.431373 0 0 0 0 0.643137 0 0 0 0.21 0"/>
            <feBlend mode="normal" in2="BackgroundImageFix" result="effect1_dropShadow_1_35"/>
            <feBlend mode="normal" in="SourceGraphic" in2="effect1_dropShadow_1_35" result="shape"/>
        </filter>
    </defs>
</svg>